<?xml version="1.0" encoding="utf-8"?>
<!-- Generator: Adobe Illustrator 16.0.0, SVG Export Plug-In . SVG Version: 6.00 Build 0)  -->
<!DOCTYPE svg PUBLIC "-//W3C//DTD SVG 1.1//EN" "http://www.w3.org/Graphics/SVG/1.1/DTD/svg11.dtd">
<svg version="1.1" id="Layer_1" xmlns="http://www.w3.org/2000/svg" xmlns:xlink="http://www.w3.org/1999/xlink" x="0px" y="0px"
	 width="1049.342px" height="345.399px" viewBox="0 0 1049.342 345.399" enable-background="new 0 0 1049.342 345.399"
	 xml:space="preserve">
<line fill="none" x1="-310.932" y1="-175.565" x2="-310.932" y2="-176.565"/>
<path fill="#02018C" d="M374.44,64.547c-2.402,0.274-4.447,0.547-6.127,0.822c-1.682,0.274-3.574,0.656-5.676,1.147
	c-2.466,0.603-4.044,1.67-4.731,3.2c-0.69,1.534-1.036,3.284-1.036,5.253v64.171c0,5.909-1.306,11.325-3.92,16.249
	c-2.612,4.924-6.205,9.054-10.768,12.39c-4.629,3.285-9.791,5.759-15.5,7.428c-5.709,1.666-11.804,2.502-18.293,2.502
	c-11.232,0-20.288-2.46-27.167-7.381c-6.882-4.919-10.317-11.671-10.317-20.254c0-5.084,1.576-9.293,4.73-12.628
	c3.153-3.333,7.491-5.002,13.021-5.002c5.227,0,9.384,1.395,12.481,4.184c3.093,2.787,4.639,6.231,4.639,10.331
	c0,3.499-1.338,6.738-4.008,9.718c-2.674,2.98-5.723,5.728-9.146,8.241v1.066c0.539,1.095,1.714,2.022,3.523,2.788
	c1.805,0.767,3.643,1.148,5.512,1.148c7.229,0,12.906-2.354,17.031-7.057c4.127-4.706,6.193-11.818,6.193-21.337V75.79
	c0-1.969-0.336-3.61-0.998-4.924c-0.665-1.313-2.267-2.462-4.801-3.447c-1.809-0.711-3.999-1.313-6.563-1.806
	c-2.564-0.491-4.695-0.848-6.383-1.066v-6.396h68.303V64.547z"/>
<path fill="#02018C" d="M584.206,174.511H514.55v-6.396c3.233-0.218,7.043-0.75,11.42-1.6c4.374-0.847,6.567-1.898,6.567-3.157
	c0-0.437-0.046-0.929-0.136-1.477c-0.089-0.545-0.347-1.283-0.766-2.213l-10.913-24.108h-44.142
	c-1.018,2.242-2.135,4.867-3.362,7.872c-1.224,3.007-2.282,5.687-3.178,8.036c-1.134,3.063-1.808,5.276-2.018,6.643
	c-0.211,1.366-0.315,2.324-0.315,2.87c0,1.75,1.457,3.238,4.365,4.468c2.914,1.231,7.76,2.12,14.543,2.666v6.396h-52.444v-6.396
	c1.983-0.11,4.22-0.396,6.712-0.861c2.49-0.464,4.461-1.106,5.902-1.927c2.463-1.313,4.551-2.924,6.264-4.838
	c1.711-1.914,3.139-4.183,4.279-6.807c6.969-15.361,13.953-30.75,20.951-46.167c6.996-15.416,14.733-32.418,23.204-51.005h18.022
	c11.771,26.351,20.995,47.179,27.663,62.486c6.668,15.308,12.345,27.991,17.03,38.048c0.779,1.641,1.77,3.13,2.974,4.469
	c1.202,1.341,2.915,2.613,5.138,3.814c1.679,0.874,3.633,1.53,5.856,1.968c2.22,0.438,4.235,0.71,6.038,0.82V174.511z
	 M517.013,127.442l-18.505-42.06l-18.234,42.06H517.013z"/>
<path fill="#02018C" d="M828.092,174.511h-69.294v-6.396c2.04-0.164,4.551-0.438,7.523-0.82c2.975-0.382,5.002-0.792,6.082-1.23
	c2.221-0.819,3.814-1.938,4.777-3.362c0.957-1.421,1.441-3.225,1.441-5.412V70.369l-43.974,102.256h-11.354
	c-0.54-1.804-1.88-5.384-4.01-10.743c-2.132-5.357-3.863-9.647-5.182-12.874l-32.35-79.952v70.767
	c0,6.779,0.495,11.931,1.486,15.458s2.598,6.109,4.822,7.749c1.498,1.149,4.189,2.243,8.064,3.28
	c3.875,1.039,6.59,1.641,8.154,1.805v6.396h-54.967v-6.396c1.498-0.164,3.95-0.533,7.344-1.107c3.392-0.574,6.172-1.57,8.335-2.993
	c2.399-1.529,4.022-4.112,4.866-7.749c0.84-3.635,1.262-8.814,1.262-15.539V83.079c0-3.498-0.483-6.409-1.441-8.733
	c-0.963-2.323-2.404-4.169-4.326-5.536c-2.402-1.694-4.866-2.788-7.389-3.28c-2.523-0.491-5.078-0.819-7.66-0.983v-6.396h58.918
	l31.52,76.667l26.566-62.221c0.901-2.299,1.77-5.034,2.609-8.207c0.841-3.174,1.291-5.253,1.35-6.239h56.646v6.396
	c-1.925,0.11-3.935,0.327-6.038,0.656c-2.104,0.327-4.115,0.767-6.037,1.312c-2.343,0.71-3.889,1.833-4.64,3.362
	c-0.753,1.531-1.127,3.227-1.127,5.084v82.412c0,1.968,0.374,3.621,1.127,4.961c0.751,1.341,2.297,2.501,4.64,3.484
	c1.201,0.492,3.167,0.957,5.902,1.395c2.732,0.438,4.852,0.738,6.353,0.902V174.511z"/>
<path fill="#02018C" d="M1043.019,174.511h-69.655v-6.396c3.235-0.218,7.043-0.75,11.419-1.6c4.377-0.847,6.568-1.898,6.568-3.157
	c0-0.437-0.045-0.929-0.135-1.477c-0.091-0.545-0.348-1.283-0.766-2.213l-10.914-24.108h-44.141
	c-1.017,2.242-2.137,4.867-3.363,7.872c-1.225,3.007-2.283,5.687-3.178,8.036c-1.135,3.063-1.809,5.276-2.018,6.643
	c-0.211,1.366-0.316,2.324-0.316,2.87c0,1.75,1.457,3.238,4.365,4.468c2.914,1.231,7.76,2.12,14.543,2.666v6.396h-52.443v-6.396
	c1.982-0.11,4.219-0.396,6.713-0.861c2.491-0.464,4.461-1.106,5.902-1.927c2.463-1.313,4.552-2.924,6.262-4.838
	c1.714-1.914,3.139-4.183,4.281-6.807c6.97-15.361,13.951-30.75,20.951-46.167c6.996-15.416,14.732-32.418,23.203-51.005h18.021
	c11.772,26.351,20.996,47.179,27.665,62.486c6.668,15.308,12.345,27.991,17.03,38.048c0.779,1.641,1.77,3.13,2.974,4.469
	c1.201,1.341,2.913,2.613,5.136,3.814c1.68,0.874,3.635,1.53,5.857,1.968c2.22,0.438,4.234,0.71,6.037,0.82V174.511z
	 M975.827,127.442l-18.506-42.06l-18.234,42.06H975.827z"/>
<g>
	<path fill="#02018C" d="M319.489,281.483h-33.041v-3.334c1.535-0.113,3.342-0.391,5.418-0.833c2.075-0.442,3.114-0.989,3.114-1.646
		c0-0.229-0.021-0.484-0.063-0.77c-0.043-0.285-0.165-0.67-0.363-1.154l-5.177-12.566h-20.938c-0.482,1.168-1.013,2.536-1.594,4.104
		c-0.582,1.566-1.084,2.964-1.508,4.188c-0.539,1.597-0.858,2.751-0.957,3.462c-0.101,0.713-0.15,1.212-0.15,1.496
		c0,0.912,0.69,1.688,2.071,2.33c1.382,0.641,3.68,1.104,6.897,1.389v3.334h-24.877v-3.334c0.939-0.057,2.002-0.206,3.184-0.448
		s2.116-0.577,2.801-1.005c1.168-0.684,2.158-1.523,2.971-2.521c0.812-0.998,1.488-2.18,2.029-3.548
		c3.306-8.008,6.619-16.029,9.938-24.065c3.319-8.035,6.988-16.897,11.007-26.586h8.549c5.584,13.735,9.959,24.592,13.122,32.57
		s5.856,14.591,8.079,19.834c0.369,0.854,0.84,1.631,1.41,2.329s1.382,1.361,2.436,1.987c0.798,0.456,1.725,0.798,2.779,1.025
		c1.053,0.229,2.009,0.371,2.863,0.428V281.483z M287.618,256.948l-8.779-21.924l-8.65,21.924H287.618z"/>
	<path fill="#02018C" d="M374.8,280.586l-21.072,1.239l-0.642-0.598v-3.933l-0.298-0.085c-1.395,1.51-3.281,2.828-5.658,3.953
		c-2.375,1.125-4.773,1.688-7.191,1.688c-5.749,0-10.488-2.138-14.215-6.411c-3.729-4.275-5.593-9.803-5.593-16.585
		c0-6.013,2.084-11.171,6.253-15.474c4.17-4.303,9.215-6.454,15.134-6.454c2.333,0,4.525,0.264,6.574,0.79
		c2.05,0.528,3.686,1.148,4.909,1.859v-13.977c0-1.054-0.214-2.045-0.642-2.971c-0.427-0.926-0.997-1.646-1.71-2.158
		c-0.883-0.627-1.987-1.076-3.313-1.347c-1.324-0.271-2.657-0.464-3.996-0.577v-3.12l23.123-1.111l0.643,0.684v56.037
		c0,1.083,0.177,1.995,0.53,2.735c0.354,0.742,0.929,1.326,1.723,1.753c0.595,0.313,1.466,0.542,2.614,0.685
		c1.146,0.143,2.09,0.229,2.826,0.256V280.586z M353.001,272.978v-24.15c-0.199-0.655-0.477-1.382-0.832-2.18
		c-0.355-0.797-0.846-1.553-1.471-2.266c-0.568-0.598-1.329-1.125-2.281-1.582c-0.952-0.455-2.025-0.684-3.219-0.684
		c-2.844,0-5.174,1.61-6.994,4.83c-1.818,3.221-2.729,7.766-2.729,13.636c0,2.308,0.162,4.381,0.49,6.22
		c0.326,1.838,0.902,3.512,1.727,5.021c0.824,1.512,1.883,2.693,3.178,3.548c1.293,0.854,2.85,1.282,4.668,1.282
		c1.734,0,3.17-0.334,4.307-1.004S352.034,274.089,353.001,272.978z"/>
	<path fill="#02018C" d="M462.511,281.483H437.12v-3.12c0.621-0.085,1.271-0.156,1.95-0.214c0.679-0.057,1.243-0.199,1.696-0.428
		c0.62-0.283,1.017-0.762,1.186-1.432c0.17-0.669,0.256-1.531,0.256-2.586v-19.961c0-2.935-0.522-5.137-1.565-6.604
		c-1.044-1.468-2.536-2.201-4.479-2.201c-1.229,0-2.322,0.192-3.279,0.577s-1.836,0.862-2.636,1.432
		c-0.829,0.599-1.473,1.197-1.929,1.795c-0.458,0.6-0.844,1.111-1.158,1.539v22.954c0,1.025,0.119,1.859,0.359,2.5
		c0.241,0.642,0.687,1.147,1.336,1.518c0.452,0.257,0.968,0.485,1.547,0.685c0.58,0.199,1.193,0.342,1.845,0.427v3.12H407.97v-3.12
		c0.536-0.057,1.187-0.128,1.949-0.214c0.763-0.085,1.328-0.228,1.695-0.428c0.594-0.313,0.982-0.769,1.166-1.367
		s0.275-1.481,0.275-2.65v-19.961c0-2.935-0.521-5.137-1.564-6.604s-2.536-2.201-4.479-2.201c-1.229,0-2.322,0.192-3.279,0.577
		c-0.958,0.385-1.837,0.862-2.636,1.432c-0.83,0.599-1.473,1.197-1.929,1.795c-0.458,0.6-0.844,1.111-1.157,1.539v22.954
		c0,0.997,0.127,1.823,0.384,2.479c0.257,0.655,0.712,1.168,1.368,1.538c0.455,0.257,0.977,0.485,1.561,0.685
		c0.583,0.199,1.203,0.342,1.859,0.427v3.12h-25.604v-3.12c0.74-0.057,1.467-0.128,2.18-0.214c0.711-0.085,1.324-0.228,1.838-0.428
		c0.912-0.342,1.539-0.833,1.881-1.475c0.342-0.641,0.513-1.488,0.513-2.543v-24.877c0-0.912-0.242-1.802-0.728-2.672
		c-0.484-0.869-1.068-1.545-1.752-2.029c-0.513-0.342-1.161-0.627-1.945-0.855c-0.783-0.228-1.645-0.385-2.586-0.471v-3.119
		l20.39-1.111l0.642,0.641v6.027h0.17c0.798-0.713,1.746-1.561,2.843-2.544s2.13-1.773,3.099-2.372
		c1.055-0.684,2.408-1.254,4.061-1.71c1.652-0.455,3.463-0.684,5.43-0.684c3.248,0,5.962,0.705,8.143,2.116
		c2.18,1.41,3.725,3.284,4.637,5.62h0.385c0.826-0.769,1.838-1.673,3.035-2.714c1.197-1.04,2.293-1.874,3.291-2.5
		c1.111-0.713,2.529-1.311,4.254-1.796c1.724-0.484,3.568-0.727,5.535-0.727c4.302,0,7.615,1.269,9.938,3.804
		c2.322,2.537,3.484,6.141,3.484,10.814v20.773c0,1.055,0.155,1.902,0.47,2.543c0.313,0.642,0.882,1.133,1.71,1.475
		c0.455,0.2,1.019,0.4,1.688,0.6c0.67,0.199,1.447,0.342,2.33,0.427V281.483z"/>
	<path fill="#02018C" d="M493.543,281.483h-27.015v-3.12c0.741-0.057,1.468-0.128,2.18-0.214c0.713-0.085,1.326-0.228,1.838-0.428
		c0.912-0.342,1.554-0.833,1.924-1.475c0.37-0.641,0.557-1.488,0.557-2.543v-24.877c0-0.997-0.229-1.873-0.685-2.629
		c-0.456-0.754-1.026-1.36-1.71-1.816c-0.513-0.342-1.289-0.669-2.33-0.982c-1.04-0.314-1.986-0.514-2.842-0.6v-3.119l20.944-1.111
		l0.642,0.641v33.938c0,0.998,0.213,1.845,0.641,2.544c0.428,0.698,1.041,1.218,1.838,1.56c0.57,0.257,1.197,0.485,1.881,0.685
		s1.396,0.342,2.138,0.427V281.483z M487.302,223.181c0,2.166-0.833,4.012-2.5,5.535c-1.667,1.525-3.641,2.287-5.92,2.287
		c-2.309,0-4.296-0.762-5.963-2.287c-1.667-1.523-2.5-3.369-2.5-5.535c0-2.165,0.833-4.018,2.5-5.557s3.654-2.308,5.963-2.308
		s4.289,0.769,5.941,2.308S487.302,221.016,487.302,223.181z"/>
	<path fill="#02018C" d="M553.897,281.483h-25.689v-3.12c0.541-0.057,1.197-0.128,1.967-0.214c0.77-0.085,1.353-0.228,1.752-0.428
		c0.599-0.313,1.025-0.769,1.282-1.367s0.385-1.481,0.385-2.65V253.7c0-2.906-0.536-5.094-1.607-6.562s-2.65-2.201-4.735-2.201
		c-1.145,0-2.207,0.171-3.193,0.513s-1.951,0.841-2.894,1.496c-0.829,0.57-1.493,1.154-1.993,1.753s-0.922,1.126-1.264,1.581v22.954
		c0,0.997,0.143,1.831,0.428,2.5c0.283,0.67,0.754,1.176,1.41,1.518c0.455,0.257,1.025,0.485,1.709,0.685
		c0.685,0.199,1.354,0.342,2.01,0.427v3.12h-25.988v-3.12c0.711-0.057,1.432-0.135,2.158-0.235c0.727-0.1,1.346-0.234,1.859-0.406
		c0.912-0.313,1.539-0.797,1.881-1.453c0.342-0.655,0.513-1.51,0.513-2.564v-24.877c0-0.883-0.229-1.752-0.684-2.607
		c-0.456-0.854-1.055-1.553-1.796-2.094c-0.513-0.342-1.16-0.627-1.944-0.855c-0.784-0.228-1.646-0.385-2.586-0.471v-3.119
		l20.389-1.111l0.642,0.641v6.197h0.17c0.798-0.711,1.768-1.566,2.907-2.564c1.14-0.997,2.194-1.809,3.163-2.436
		c1.054-0.685,2.437-1.268,4.146-1.753c1.709-0.484,3.533-0.727,5.471-0.727c4.645,0,8.128,1.318,10.451,3.954
		c2.322,2.636,3.483,6.133,3.483,10.493v20.944c0,1.055,0.156,1.896,0.47,2.522c0.314,0.626,0.898,1.126,1.753,1.495
		c0.456,0.2,1.019,0.4,1.688,0.6c0.669,0.199,1.432,0.342,2.287,0.427V281.483z"/>
	<path fill="#02018C" d="M584.887,281.483h-27.015v-3.12c0.741-0.057,1.468-0.128,2.18-0.214c0.713-0.085,1.326-0.228,1.838-0.428
		c0.912-0.342,1.554-0.833,1.924-1.475c0.37-0.641,0.557-1.488,0.557-2.543v-24.877c0-0.997-0.229-1.873-0.685-2.629
		c-0.456-0.754-1.026-1.36-1.71-1.816c-0.513-0.342-1.289-0.669-2.329-0.982c-1.041-0.314-1.987-0.514-2.843-0.6v-3.119
		l20.945-1.111l0.641,0.641v33.938c0,0.998,0.213,1.845,0.641,2.544c0.428,0.698,1.041,1.218,1.838,1.56
		c0.57,0.257,1.197,0.485,1.881,0.685s1.396,0.342,2.138,0.427V281.483z M578.646,223.181c0,2.166-0.833,4.012-2.5,5.535
		c-1.667,1.525-3.641,2.287-5.92,2.287c-2.309,0-4.296-0.762-5.963-2.287c-1.667-1.523-2.5-3.369-2.5-5.535
		c0-2.165,0.833-4.018,2.5-5.557s3.654-2.308,5.963-2.308s4.289,0.769,5.941,2.308S578.646,221.016,578.646,223.181z"/>
	<path fill="#02018C" d="M608.609,282.937c-2.765,0-5.465-0.406-8.101-1.218c-2.635-0.812-4.68-1.673-6.133-2.586l-1.283,2.907
		h-3.334l-0.555-15.944h3.12c0.427,1.282,1.14,2.729,2.138,4.339c0.996,1.609,2.137,3.057,3.419,4.338
		c1.339,1.283,2.87,2.366,4.595,3.249c1.725,0.884,3.569,1.325,5.535,1.325c2.593,0,4.523-0.506,5.792-1.518
		c1.268-1.011,1.902-2.571,1.902-4.681c0-1.14-0.285-2.079-0.854-2.821c-0.571-0.74-1.354-1.382-2.352-1.923
		c-1.111-0.57-2.33-1.054-3.654-1.454c-1.325-0.398-2.957-0.883-4.895-1.453c-1.938-0.569-3.598-1.146-4.979-1.73
		c-1.383-0.584-2.814-1.503-4.296-2.758c-1.282-1.111-2.309-2.45-3.078-4.018c-0.769-1.566-1.153-3.434-1.153-5.6
		c0-4.018,1.688-7.266,5.065-9.745s7.801-3.719,13.271-3.719c2.593,0,4.98,0.264,7.16,0.79c2.18,0.528,4.01,1.105,5.492,1.732
		l0.897-2.522h3.249l0.684,14.575h-2.992c-0.998-2.963-2.707-5.52-5.129-7.672s-5.029-3.228-7.822-3.228
		c-2.195,0-3.918,0.456-5.172,1.368c-1.255,0.912-1.881,2.18-1.881,3.804c0,2.166,0.917,3.733,2.752,4.702
		c1.834,0.969,4.402,1.881,7.702,2.735c5.093,1.312,8.818,3.099,11.181,5.364c2.36,2.266,3.541,5.15,3.541,8.656
		c0,4.674-1.831,8.292-5.492,10.856C619.288,281.655,614.509,282.937,608.609,282.937z"/>
	<path fill="#02018C" d="M665.501,279.518c-1.823,0.798-3.775,1.518-5.855,2.158c-2.08,0.642-4.616,0.962-7.608,0.962
		c-4.445,0-7.743-1.082-9.896-3.244c-2.151-2.164-3.227-5.252-3.227-9.266v-26.217h-7.693v-4.658h7.864v-12.951h13.849v12.951
		h12.012v4.658h-11.926v23.394c0,3.33,0.465,5.692,1.394,7.086c0.929,1.396,2.595,2.092,4.997,2.092
		c0.772,0,1.844-0.057,3.217-0.171c1.372-0.113,2.33-0.241,2.873-0.385V279.518z"/>
	<path fill="#02018C" d="M711.066,246.903c0,2.166-0.669,4.068-2.009,5.707s-3.105,2.457-5.301,2.457
		c-2.08,0-3.84-0.524-5.278-1.574s-2.159-2.596-2.159-4.64c0-0.993,0.071-1.767,0.215-2.319c0.143-0.554,0.27-1.072,0.385-1.554
		c-1.312,0.057-2.693,0.509-4.146,1.356c-1.453,0.847-2.736,1.977-3.848,3.389v23.466c0,0.998,0.156,1.823,0.471,2.479
		c0.313,0.656,0.84,1.168,1.582,1.539c0.626,0.313,1.645,0.576,3.056,0.79s2.429,0.335,3.056,0.363v3.12h-28.596v-3.12
		c0.713-0.057,1.433-0.135,2.159-0.235c0.727-0.1,1.347-0.234,1.859-0.406c0.911-0.313,1.538-0.797,1.881-1.453
		c0.342-0.655,0.513-1.51,0.513-2.564v-24.877c0-1.025-0.242-1.945-0.727-2.757c-0.485-0.812-1.068-1.46-1.752-1.944
		c-0.514-0.342-1.162-0.627-1.945-0.855c-0.784-0.228-1.646-0.385-2.586-0.471v-3.119l20.389-1.111l0.641,0.641v6.197h0.172
		c1.966-2.279,4.053-4.066,6.262-5.363c2.207-1.297,4.51-1.945,6.902-1.945c2.65,0,4.781,0.819,6.391,2.458
		S711.066,244.312,711.066,246.903z"/>
	<path fill="#02018C" d="M762.872,280.586c-1.251,0.542-2.73,1.04-4.436,1.496c-1.707,0.456-3.514,0.685-5.418,0.685
		c-3.498,0-6.072-0.521-7.721-1.561c-1.65-1.04-2.773-2.528-3.371-4.467h-0.256c-0.971,0.969-1.905,1.795-2.805,2.479
		c-0.898,0.685-1.862,1.269-2.889,1.753c-1.342,0.626-2.633,1.097-3.875,1.411c-1.241,0.313-2.976,0.47-5.201,0.47
		c-3.312,0-6.137-0.978-8.478-2.933s-3.511-4.544-3.511-7.77c0-1.854,0.257-3.432,0.771-4.729c0.514-1.298,1.242-2.447,2.184-3.446
		c0.855-0.914,1.848-1.67,2.975-2.27c1.128-0.6,2.361-1.155,3.703-1.669c2.569-0.942,5.65-1.919,9.248-2.933
		c3.596-1.013,6.222-1.919,7.877-2.719v-4.104c0-0.711-0.057-1.652-0.17-2.82c-0.115-1.169-0.357-2.152-0.728-2.949
		c-0.399-0.912-1.026-1.682-1.882-2.309c-0.854-0.627-1.98-0.94-3.377-0.94c-1.255,0-2.303,0.179-3.144,0.534
		c-0.841,0.357-1.519,0.721-2.031,1.09c0.085,0.57,0.329,1.439,0.729,2.607c0.399,1.169,0.6,2.294,0.6,3.377
		c0,0.484-0.129,1.09-0.386,1.816s-0.628,1.304-1.114,1.731c-0.658,0.57-1.395,1.012-2.208,1.325
		c-0.814,0.314-2.064,0.47-3.751,0.47c-2.4,0-4.215-0.577-5.443-1.731c-1.229-1.153-1.844-2.656-1.844-4.509
		c0-1.596,0.634-3.028,1.902-4.296c1.268-1.268,2.813-2.314,4.637-3.142c1.796-0.854,3.861-1.518,6.198-1.987
		c2.336-0.471,4.503-0.705,6.497-0.705c2.764,0,5.301,0.164,7.608,0.491s4.388,1.004,6.241,2.03c1.766,0.998,3.169,2.443,4.21,4.338
		c1.04,1.896,1.56,4.367,1.56,7.416c0,3.221-0.063,7.039-0.191,11.456c-0.129,4.417-0.193,7.323-0.193,8.72
		c0,1.282,0.193,2.294,0.578,3.035s0.976,1.297,1.773,1.666c0.484,0.229,1.246,0.363,2.287,0.406
		c1.039,0.043,1.987,0.064,2.842,0.064V280.586z M741.671,258.316c-1.602,0.544-3.189,1.164-4.762,1.864
		c-1.572,0.699-2.859,1.436-3.86,2.207c-1.058,0.8-1.888,1.82-2.487,3.063c-0.602,1.243-0.901,2.707-0.901,4.392
		c0,2.228,0.508,3.843,1.522,4.842c1.016,1,2.267,1.5,3.754,1.5c1.572,0,2.867-0.321,3.883-0.964
		c1.015-0.643,1.908-1.436,2.68-2.379L741.671,258.316z"/>
	<path fill="#02018C" d="M790.57,282.852c-3.961,0-7.459-0.577-10.493-1.731c-3.035-1.154-5.535-2.729-7.502-4.723
		c-1.967-2.023-3.435-4.417-4.402-7.182c-0.969-2.764-1.453-5.77-1.453-9.019c0-2.964,0.591-5.784,1.773-8.464
		c1.182-2.678,2.785-5.028,4.809-7.053c2.08-2.079,4.666-3.74,7.758-4.979c3.092-1.24,6.504-1.859,10.237-1.859
		c5.243,0,9.39,0.99,12.438,2.971s4.574,4.652,4.574,8.014c0,2.052-0.542,3.705-1.625,4.959s-2.949,1.881-5.6,1.881
		c-2.137,0-3.926-0.514-5.363-1.539c-1.439-1.026-2.159-2.365-2.159-4.019c0-1.396,0.228-2.778,0.684-4.146
		c0.456-1.368,0.728-2.408,0.813-3.121c-0.313-0.513-0.712-0.904-1.196-1.175c-0.486-0.271-1.24-0.406-2.266-0.406
		c-1.283,0-2.451,0.3-3.506,0.897c-1.054,0.599-2.037,1.652-2.949,3.163c-0.883,1.425-1.588,3.334-2.115,5.728
		c-0.528,2.395-0.791,5.272-0.791,8.635c0,5.072,1.189,9.162,3.568,12.268s5.223,4.658,8.528,4.658c3.163,0,5.678-0.705,7.544-2.115
		s3.526-3.412,4.98-6.006l3.205,2.223c-0.883,1.738-1.938,3.328-3.163,4.766c-1.226,1.439-2.692,2.715-4.402,3.826
		c-1.796,1.169-3.619,2.052-5.472,2.65C795.172,282.552,793.021,282.852,790.57,282.852z"/>
	<path fill="#02018C" d="M839.683,281.483h-27.014v-3.12c0.74-0.057,1.468-0.128,2.18-0.214c0.712-0.085,1.325-0.228,1.838-0.428
		c0.912-0.342,1.553-0.833,1.924-1.475c0.37-0.641,0.556-1.488,0.556-2.543v-24.877c0-0.997-0.229-1.873-0.685-2.629
		c-0.455-0.754-1.025-1.36-1.709-1.816c-0.514-0.342-1.289-0.669-2.33-0.982c-1.04-0.314-1.987-0.514-2.842-0.6v-3.119l20.944-1.111
		l0.642,0.641v33.938c0,0.998,0.213,1.845,0.641,2.544c0.428,0.698,1.04,1.218,1.838,1.56c0.57,0.257,1.197,0.485,1.881,0.685
		s1.396,0.342,2.137,0.427V281.483z M833.442,223.181c0,2.166-0.834,4.012-2.5,5.535c-1.668,1.525-3.641,2.287-5.92,2.287
		c-2.309,0-4.297-0.762-5.963-2.287c-1.668-1.523-2.501-3.369-2.501-5.535c0-2.165,0.833-4.018,2.501-5.557
		c1.666-1.539,3.654-2.308,5.963-2.308c2.308,0,4.288,0.769,5.941,2.308C832.616,219.163,833.442,221.016,833.442,223.181z"/>
	<path fill="#02018C" d="M887.257,244.126c2.109,1.966,3.719,4.316,4.83,7.053c1.111,2.735,1.668,5.699,1.668,8.891
		c0,3.162-0.55,6.148-1.646,8.955s-2.699,5.207-4.809,7.201c-2.251,2.138-4.938,3.777-8.057,4.916
		c-3.121,1.14-6.689,1.71-10.708,1.71c-3.478,0-6.675-0.499-9.596-1.496s-5.508-2.493-7.759-4.488
		c-2.165-1.908-3.875-4.267-5.129-7.074c-1.254-2.806-1.881-5.948-1.881-9.425c0-3.42,0.549-6.461,1.646-9.126
		c1.096-2.664,2.742-5.036,4.937-7.116c2.108-1.994,4.708-3.541,7.801-4.639c3.092-1.096,6.546-1.645,10.365-1.645
		c3.989,0,7.501,0.549,10.536,1.645C882.491,240.585,885.091,242.132,887.257,244.126z M876.314,273.747
		c0.626-1.596,1.091-3.533,1.39-5.813c0.299-2.279,0.449-4.93,0.449-7.95c0-1.994-0.144-4.274-0.428-6.839
		c-0.285-2.564-0.713-4.588-1.283-6.069c-0.684-1.796-1.631-3.206-2.842-4.232c-1.212-1.025-2.742-1.538-4.596-1.538
		c-2.023,0-3.64,0.556-4.851,1.667c-1.212,1.111-2.145,2.551-2.8,4.316c-0.599,1.625-1.012,3.527-1.24,5.707
		s-0.342,4.452-0.342,6.817c0,3.106,0.1,5.679,0.3,7.716c0.198,2.037,0.684,4.082,1.453,6.133c0.655,1.768,1.596,3.164,2.821,4.189
		c1.225,1.025,2.778,1.539,4.658,1.539c1.711,0,3.178-0.477,4.403-1.432C874.633,277.003,875.603,275.6,876.314,273.747z"/>
	<path fill="#02018C" d="M955.69,281.483h-25.689v-3.12c0.541-0.057,1.197-0.128,1.967-0.214c0.77-0.085,1.353-0.228,1.752-0.428
		c0.599-0.313,1.025-0.769,1.282-1.367s0.385-1.481,0.385-2.65V253.7c0-2.906-0.536-5.094-1.607-6.562s-2.65-2.201-4.735-2.201
		c-1.145,0-2.207,0.171-3.193,0.513s-1.951,0.841-2.894,1.496c-0.829,0.57-1.493,1.154-1.993,1.753s-0.922,1.126-1.264,1.581v22.954
		c0,0.997,0.143,1.831,0.428,2.5c0.283,0.67,0.754,1.176,1.41,1.518c0.455,0.257,1.025,0.485,1.709,0.685
		c0.685,0.199,1.354,0.342,2.01,0.427v3.12h-25.988v-3.12c0.711-0.057,1.432-0.135,2.158-0.235c0.727-0.1,1.347-0.234,1.859-0.406
		c0.912-0.313,1.539-0.797,1.881-1.453c0.342-0.655,0.513-1.51,0.513-2.564v-24.877c0-0.883-0.229-1.752-0.684-2.607
		c-0.456-0.854-1.055-1.553-1.796-2.094c-0.513-0.342-1.16-0.627-1.944-0.855c-0.784-0.228-1.646-0.385-2.586-0.471v-3.119
		l20.389-1.111l0.642,0.641v6.197h0.17c0.798-0.711,1.768-1.566,2.907-2.564c1.14-0.997,2.194-1.809,3.163-2.436
		c1.054-0.685,2.437-1.268,4.146-1.753c1.709-0.484,3.533-0.727,5.471-0.727c4.645,0,8.128,1.318,10.451,3.954
		c2.322,2.636,3.483,6.133,3.483,10.493v20.944c0,1.055,0.156,1.896,0.47,2.522c0.314,0.626,0.898,1.126,1.753,1.495
		c0.456,0.2,1.019,0.4,1.688,0.6c0.669,0.199,1.432,0.342,2.287,0.427V281.483z"/>
	<path fill="#02018C" d="M1005.615,271.269c-0.998,1.623-2.202,3.156-3.612,4.594c-1.41,1.439-3.014,2.672-4.809,3.697
		c-1.909,1.084-3.84,1.902-5.791,2.459c-1.953,0.555-4.197,0.833-6.732,0.833c-4.218,0-7.859-0.599-10.922-1.796
		c-3.063-1.196-5.592-2.806-7.586-4.83c-1.995-2.022-3.484-4.408-4.467-7.159c-0.984-2.749-1.475-5.733-1.475-8.954
		c0-2.907,0.533-5.691,1.602-8.357c1.069-2.664,2.587-5.036,4.553-7.116c1.938-2.023,4.381-3.661,7.33-4.916
		c2.95-1.253,6.248-1.88,9.896-1.88c3.988,0,7.266,0.484,9.83,1.453s4.688,2.308,6.369,4.018c1.625,1.624,2.807,3.541,3.548,5.749
		s1.111,4.524,1.111,6.946v2.777h-28.896c0,5.842,1.127,10.287,3.377,13.337c2.251,3.05,5.828,4.573,10.729,4.573
		c2.679,0,5.088-0.732,7.225-2.201c2.137-1.468,3.96-3.327,5.471-5.578L1005.615,271.269z M989.287,255.025
		c0-1.71-0.086-3.462-0.257-5.258c-0.171-1.795-0.471-3.263-0.897-4.402c-0.485-1.339-1.147-2.351-1.987-3.035
		c-0.841-0.684-1.902-1.025-3.185-1.025c-2.194,0-3.947,1.111-5.258,3.334s-2.023,5.742-2.138,10.558L989.287,255.025z"/>
	<path fill="#02018C" d="M1029.509,282.937c-2.764,0-5.465-0.406-8.1-1.218c-2.637-0.812-4.681-1.673-6.134-2.586l-1.282,2.907
		h-3.334l-0.557-15.944h3.121c0.428,1.282,1.139,2.729,2.137,4.339s2.138,3.057,3.42,4.338c1.34,1.283,2.87,2.366,4.595,3.249
		c1.724,0.884,3.569,1.325,5.536,1.325c2.592,0,4.523-0.506,5.791-1.518c1.268-1.011,1.902-2.571,1.902-4.681
		c0-1.14-0.285-2.079-0.855-2.821c-0.57-0.74-1.354-1.382-2.351-1.923c-1.111-0.57-2.329-1.054-3.654-1.454
		c-1.325-0.398-2.956-0.883-4.895-1.453c-1.938-0.569-3.597-1.146-4.979-1.73s-2.814-1.503-4.296-2.758
		c-1.282-1.111-2.308-2.45-3.077-4.018c-0.77-1.566-1.154-3.434-1.154-5.6c0-4.018,1.688-7.266,5.064-9.745
		c3.377-2.479,7.801-3.719,13.272-3.719c2.593,0,4.979,0.264,7.159,0.79c2.181,0.528,4.012,1.105,5.493,1.732l0.897-2.522h3.249
		l0.684,14.575h-2.992c-0.997-2.963-2.708-5.52-5.129-7.672c-2.423-2.152-5.03-3.228-7.822-3.228c-2.194,0-3.919,0.456-5.172,1.368
		c-1.255,0.912-1.881,2.18-1.881,3.804c0,2.166,0.917,3.733,2.752,4.702s4.402,1.881,7.702,2.735
		c5.092,1.312,8.818,3.099,11.18,5.364s3.543,5.15,3.543,8.656c0,4.674-1.832,8.292-5.493,10.856
		C1040.188,281.655,1035.407,282.937,1029.509,282.937z"/>
</g>
<path fill="#02018C" d="M1.783,0c0,0,18.361,34.667,96.667,40.696c99.684,7.675,100.6,96.662,92.667,131.704
	c-3.333-56.889-35.779-64.039-105.733-70.437C-19.55,92.364,1.783,0,1.783,0z"/>
<path fill="#02018C" d="M1.783,90c0,0,18.361,34.667,96.667,40.696c99.684,7.675,100.6,96.663,92.667,131.704
	c-3.333-56.889-35.779-64.039-105.733-70.438C-19.55,182.364,1.783,90,1.783,90z"/>
<path fill="#02018C" d="M1.783,173c0,0,18.361,34.667,96.667,40.696c99.684,7.674,100.6,96.662,92.667,131.703
	c-3.333-56.889-35.779-64.039-105.733-70.438C-19.55,265.364,1.783,173,1.783,173z"/>
</svg>
